<?xml version="1.0" encoding="UTF-8" standalone="no"?>
<!-- Created with Inkscape (http://www.inkscape.org/) -->

<svg
   xmlns:dc="http://purl.org/dc/elements/1.1/"
   xmlns:cc="http://creativecommons.org/ns#"
   xmlns:rdf="http://www.w3.org/1999/02/22-rdf-syntax-ns#"
   xmlns:svg="http://www.w3.org/2000/svg"
   xmlns="http://www.w3.org/2000/svg"
   xmlns:sodipodi="http://sodipodi.sourceforge.net/DTD/sodipodi-0.dtd"
   xmlns:inkscape="http://www.inkscape.org/namespaces/inkscape"
   version="1.1"
   id="svg3804"
   width="1093.3333"
   height="1093.3333"
   viewBox="0 0 1093.3333 1093.3333"
   sodipodi:docname="logo.svg"
   inkscape:version="0.92.2 5c3e80d, 2017-08-06"
   inkscape:export-filename="/Users/stephanegosselin/Projects/ComicsManager/src/assets/favicon1200.png"
   inkscape:export-xdpi="139.884"
   inkscape:export-ydpi="139.884">
  <sodipodi:namedview
     pagecolor="#ffffff"
     bordercolor="#666666"
     borderopacity="1"
     objecttolerance="10"
     gridtolerance="10"
     guidetolerance="10"
     inkscape:pageopacity="0"
     inkscape:pageshadow="2"
     inkscape:window-width="1437"
     inkscape:window-height="772"
     id="namedview3806"
     showgrid="false"
     inkscape:zoom="0.50146736"
     inkscape:cx="439.00371"
     inkscape:cy="537.7218"
     inkscape:window-x="5"
     inkscape:window-y="0"
     inkscape:window-maximized="0"
     inkscape:current-layer="svg3804" />
  <metadata
     id="metadata3810">
    <rdf:RDF>
      <cc:Work
         rdf:about="">
        <dc:format>image/svg+xml</dc:format>
        <dc:type
           rdf:resource="http://purl.org/dc/dcmitype/StillImage" />
        <dc:title />
      </cc:Work>
    </rdf:RDF>
  </metadata>
  <defs
     id="defs3808" />
  <g
     style="display:none;opacity:1"
     inkscape:label="contours"
     id="layer2"
     inkscape:groupmode="layer">
    <path
       inkscape:connector-curvature="0"
       id="path5399"
       d="M 396.49253,6.6038871 C 372.49029,7.1515684 362.98617,33.189829 353.81596,51.161557 307.97138,153.21968 220.09389,234.50848 116.38954,275.51037 85.475594,289.6214 49.576831,292.89409 21.359074,312.70166 c -14.8733679,12.36609 -7.715591,34.77964 2.255497,47.9777 45.359837,70.56292 81.371569,151.66397 78.484119,237.1426 1.28503,32.23364 -3.604598,64.31623 -2.84322,96.47078 2.33924,17.339 21.24535,25.71495 37.07479,25.10211 25.00199,2.73889 50.83492,-0.44517 75.34919,5.01263 6.98438,7.26347 -0.60158,19.03558 -0.30884,27.70625 -17.08071,96.14863 -38.92444,191.50399 -54.1758,287.97667 -5.10922,24.9235 20.35686,48.5737 44.91506,43.5402 22.11803,-0.3104 33.36038,-22.3768 47.47617,-35.8635 64.58548,-72.44456 125.16416,-148.39976 190.36878,-220.25205 5.1671,-5.43976 13.19472,-14.61521 20.30761,-6.5433 33.94392,24.31449 59.98615,57.89763 93.16797,83.00251 16.36928,9.67748 37.88209,0.85509 47.85955,-14.11092 42.74033,-55.5105 94.3673,-105.2777 156.49495,-138.46688 71.03595,-39.01843 151.88971,-58.88842 232.8345,-59.17911 24.7448,-1.83818 50.3336,2.57247 74.5358,-3.7201 17.1521,-9.18138 22.4365,-35.07375 8.6657,-49.63161 -27.1227,-38.35537 -56.0014,-76.05992 -74.36625,-119.69072 -22.45171,-49.24119 -34.93263,-103.23623 -32.76963,-157.46083 -1.14833,-36.38371 1.33093,-72.66222 12.18944,-107.58367 10.05673,-38.74959 31.15084,-73.48225 43.91294,-111.21952 8.8688,-23.12846 -17.5961,-45.597937 -39.62985,-39.40779 -51.27484,15.91937 -101.69106,37.72304 -155.75773,41.77584 C 713.12572,159.24534 594.45411,133.35558 497.3585,71.113019 466.38029,53.111357 441.17309,26.644775 409.93746,9.2328905 405.73345,7.343553 401.11315,6.3038709 396.49253,6.6038871 Z m 17.54228,98.0598729 c 22.44043,9.72581 41.37869,26.49769 63.45893,37.26455 85.61951,47.32459 182.59256,77.27455 281.08461,74.77656 51.78198,0.60111 103.40139,-4.85908 154.11952,-15.14278 6.42126,-0.45685 0.11854,12.22402 -1.40753,17.22379 -5.12868,12.403 -21.74241,8.80398 -31.97259,13.6085 -43.99468,9.43021 -86.51972,24.55542 -128.94189,39.00272 -15.13207,-2.20219 -30.42888,-5.5737 -45.99874,-5.2055 -45.64357,-0.57637 -92.78481,-3.00125 -136.32168,13.30673 -52.16668,16.71935 -101.53988,44.07286 -139.17358,84.40463 -43.62834,41.499 -75.09837,96.58402 -85.86521,155.99143 -3.29417,33.27276 -5.35473,70.20072 14.80812,98.99464 28.32414,44.09432 83.57156,59.18658 133.02367,61.93153 56.58361,4.95593 113.09157,-8.81669 164.14542,-32.71517 37.64439,-17.65172 75.73474,-35.18122 110.78211,-57.60959 5.38769,-3.09707 -0.0242,-8.33991 -4.26871,-4.93863 -62.7796,25.46764 -121.85264,61.1569 -187.83548,78.02492 -36.05172,4.0609 -74.65724,4.40064 -107.04912,-13.94346 -28.16417,-13.45519 -50.86957,-39.6039 -58.30363,-69.725 0.0604,-42.17977 -1.89255,-85.61841 14.45595,-125.42487 20.96563,-58.13557 58.04458,-113.17086 111.53187,-145.7715 41.15984,-24.22074 88.61037,-37.02058 136.42774,-35.27149 17.91281,1.15625 37.59778,-1.30914 54.07568,6.78868 -1.15459,7.15382 -11.60021,10.39818 -16.42625,15.33009 -58.41589,41.01647 -115.31403,89.90395 -146.85311,155.30145 -10.19751,23.55579 -18.91132,54.45292 -2.14532,77.09068 18.82204,19.19688 48.86405,19.2536 73.85747,16.59973 42.66626,-6.71749 78.52293,-34.9069 108.46307,-64.43943 38.56187,-40.26865 68.54478,-96.14981 59.75808,-153.38616 -4.03488,-16.78384 -17.44536,-28.35989 -26.63667,-42.05627 0.18369,-5.92111 10.16374,-6.90845 14.40304,-9.95906 35.48055,-14.26479 72.09976,-26.96093 109.91182,-33.09427 8.00606,-0.64036 1.38958,10.92944 2.25121,15.11968 -10.47197,58.20313 -12.28365,118.33411 -4.16701,176.94374 10.6591,64.40481 37.15065,124.85553 68.48605,181.66012 5.28146,8.7297 -9.9008,5.79912 -14.43029,7.94931 -60.6885,6.83295 -121.30762,18.8178 -177.77586,42.81405 -74.47486,30.10866 -140.13584,78.96768 -195.38294,136.80336 -5.14558,3.86006 -12.24868,14.81216 -18.54324,6.35009 -35.82401,-26.15702 -67.42008,-60.47843 -109.75991,-76.21926 -20.44298,-6.99599 -34.35097,14.1063 -46.89761,26.3074 -49.71302,54.4912 -95.3198,112.91387 -144.99237,167.22619 -6.68308,1.80255 -0.749,-10.26808 -1.62804,-13.02816 12.18825,-74.05371 30.32686,-147.26809 39.30262,-221.82168 -1.22796,-17.65463 -18.37541,-28.59221 -34.70673,-29.9979 -27.22805,-5.88986 -55.18487,-7.13221 -82.50397,-12.2609 -4.79342,-53.64493 0.28387,-108.77468 -15.99547,-160.92405 -10.84056,-43.24794 -30.14705,-83.70555 -48.71159,-123.88904 -3.35952,-6.18457 -0.77205,-13.90621 6.83783,-14.82707 71.26147,-29.07136 141.39842,-65.73271 195.63941,-121.43418 33.74593,-31.74462 61.30806,-69.15162 85.56344,-108.46093 4.1151,-4.511 6.74863,-12.60411 12.30688,-15.26822 z m 341.04989,188.8754 c 21.05432,11.98282 34.20562,36.11011 34.53537,60.33466 1.32146,50.42402 -26.7544,98.32428 -63.26705,131.71854 -23.33218,19.92985 -52.83207,35.75142 -84.11684,36.47924 -19.72702,0.19327 -44.01576,-10.6989 -45.17211,-33.03587 -1.10388,-33.55018 18.92504,-63.73384 36.25299,-90.94013 30.00893,-38.43529 66.18636,-72.61067 107.20881,-99.03748 4.54211,-2.35604 9.28918,-5.41327 14.55883,-5.51896 z"
       style="opacity:1;fill:#2a6395;fill-opacity:1;stroke-width:1.99414778" />
    <path
       inkscape:connector-curvature="0"
       id="path5401"
       d="m 230.655,413.32044 c -14.39579,0.14499 -23.46692,15.42542 -19.1703,28.58409 5.601,25.77414 12.90385,51.44797 11.83246,78.1184 1.95825,21.46597 -1.70942,44.08751 4.49073,64.90327 8.1207,16.22851 31.60777,11.27942 38.78462,-3.05354 9.90008,-20.53142 6.66601,-44.64658 6.27845,-66.765 -2.97839,-30.98049 -8.24146,-62.48404 -20.25307,-91.29457 -4.67537,-7.2 -13.50173,-11.08358 -21.96289,-10.49265 z"
       style="opacity:1;fill:#2a6395;fill-opacity:1;stroke-width:1.99414778" />
    <path
       inkscape:connector-curvature="0"
       id="path5403"
       d="m 401.06505,189.33325 c -17.70889,1.72323 -24.29733,22.13633 -34.22786,34.04448 -31.15935,47.0416 -75.26088,86.37305 -128.40423,106.42999 -15.63416,4.71699 -19.59961,27.69765 -6.55498,37.44869 9.89243,7.64108 24.188,1.44428 35.05727,-1.10224 67.60358,-25.90484 122.17489,-80.21712 155.21636,-143.95643 11.18573,-14.91102 -3.52407,-35.74744 -21.08656,-32.86449 z"
       style="opacity:1;fill:#2a6395;fill-opacity:1;stroke-width:1.99414778" />
    <path
       inkscape:connector-curvature="0"
       id="path5405"
       d="M 396.00957,6.821997 C 372.54523,8.7214718 363.78029,34.836105 353.6842,52.174295 330.61905,101.73388 298.10483,146.52935 258.38943,184.11441 203.55527,238.57054 132.46871,273.74848 58.862293,295.29182 43.28637,302.59223 21.356532,306.49895 14.20429,324.20307 c -5.3511991,20.29512 12.326588,37.07167 20.440014,53.99388 30.601411,53.05759 57.544686,110.55739 64.704641,171.9641 4.357825,48.67286 -0.03064,97.66474 1.702035,146.40237 2.09911,18.26809 24.33536,22.21091 39.35715,22.72628 23.95123,2.2415 48.83871,1.42059 72.22554,5.62412 2.44415,19.63053 -4.80468,39.54036 -7.18519,59.09928 -16.44352,88.81397 -35.58479,177.2965 -49.79602,266.4882 5.53378,13.7627 14.04843,27.1577 29.0943,31.6493 16.69171,5.6809 36.34265,-1.6332 46.79745,-15.6128 73.46341,-78.92248 139.17903,-164.80891 213.21294,-243.14737 5.31155,-8.62787 14.52453,-4.08766 20.27641,1.02434 32.35549,23.79628 56.93232,56.97108 90.28973,79.35306 16.65125,8.47808 36.1274,-0.40523 46.19645,-14.81979 54.9532,-71.2568 126.43247,-131.58302 211.40047,-163.20161 60.11787,-23.84446 124.66106,-33.38474 189.05679,-33.66253 22.3459,-2.08715 46.4583,2.07753 67.5716,-6.79208 12.3862,-10.19997 15.9575,-29.81221 5.5695,-42.81966 -37.3024,-54.85781 -77.25993,-109.97424 -94.86219,-174.94752 -16.33767,-53.00409 -14.58502,-109.64362 -11.35729,-164.39644 5.31097,-53.4375 30.42836,-101.42633 49.59258,-150.80687 7.2972,-14.39533 6.8325,-35.17025 -9.0202,-43.63032 -17.19259,-12.306811 -37.26828,-0.11657 -54.78706,4.48367 -51.61722,17.48243 -104.33206,33.68944 -159.26449,34.91243 C 679.49683,154.49168 561.26106,120.79171 468.08894,50.930866 446.31859,36.404544 427.30443,16.408533 402.38151,7.340008 c -2.0852,-0.4741284 -4.2374,-0.6539047 -6.37194,-0.518011 z m 17.72534,98.718103 c 25.39222,9.27758 46.01518,28.38434 70.59361,39.66484 81.24937,42.63926 171.48887,72.79658 264.17378,70.82359 53.43367,1.1873 106.94208,-3.28709 159.38397,-13.18025 4.39678,-1.88382 9.90904,-0.46141 7.29888,5.06325 -2.08595,9.21392 -6.45116,19.1995 -17.20813,19.91406 -49.96882,11.45044 -98.74603,27.42344 -147.36746,43.58709 -45.51291,-7.92556 -92.2222,-5.89078 -138.09701,-2.6522 -49.80539,8.6903 -97.38659,29.5226 -139.34659,57.49126 -50.64306,39.26341 -96.41278,88.57733 -118.03343,149.99514 -13.52971,38.50899 -19.216,81.85785 -7.48882,121.52444 16.11317,43.12471 59.58677,69.28737 103.28248,77.3316 70.01967,15.55951 143.73039,1.78045 207.57823,-29.27786 36.44552,-17.35618 74.1726,-33.31182 107.35724,-56.48992 4.63924,-6.42157 -7.30247,-2.9301 -9.65525,-1.09833 -60.4415,24.68834 -117.66506,58.33306 -181.21428,74.70262 -27.6084,2.57969 -56.39368,3.97432 -83.38031,-2.89773 -34.64032,-10.42824 -66.1359,-34.54205 -79.80214,-68.82921 -6.41968,-14.67038 -0.63657,-32.04735 -2.00862,-47.83731 0.052,-33.89429 2.17444,-68.72682 17.11391,-99.78031 26.55168,-67.2718 76.80059,-128.72401 146.44698,-153.64147 35.42737,-14.7396 74.08305,-17.32196 112.032,-15.64297 12.58654,1.52664 28.10332,-1.4383 38.55557,6.58225 -16.79109,18.48138 -39.78044,31.449 -58.88786,47.99502 -44.83566,35.63413 -85.53351,79.47636 -107.49884,133.0362 -7.77832,22.43643 -12.72211,53.45965 7.54426,70.90908 20.75672,14.79239 48.3655,12.78133 72.51375,10.82372 49.92482,-11.41732 90.82206,-46.95798 122.32547,-85.84489 29.04611,-37.77586 50.01621,-86.79197 39.73018,-135.06152 -4.2514,-15.48936 -19.6272,-25.47567 -24.17904,-40.31526 16.01468,-11.93779 37.03503,-15.89408 55.53538,-22.98963 23.43562,-6.43703 47.12125,-16.29979 71.43187,-17.05302 -0.51414,20.65644 -6.4155,41.2123 -7.24803,62.03862 -8.23749,74.53304 -0.3836,151.27231 28.31893,220.89144 11.40736,32.36191 30.11998,61.6691 41.83044,93.77691 -6.68606,4.46099 -18.13919,3.64788 -26.47096,5.68073 -100.01935,12.05313 -199.16161,44.98387 -279.67122,106.8736 -32.34962,22.92753 -59.24994,52.2984 -89.51699,77.62971 -7.19764,5.89421 -14.16023,-5.00204 -20.32707,-7.83247 C 517.24889,777.07085 486.86888,748.43487 449.20113,732.76966 430,727.61958 416.48117,747.47439 404.22087,758.76001 353.39904,813.0487 308.70203,872.8391 257.09694,926.35389 c -2.82774,-0.65594 -0.0726,-9.73023 -0.25318,-13.05543 11.10252,-74.65361 30.31358,-148.09169 37.99787,-223.24717 -1.55067,-14.78842 -17.44417,-24.99411 -31.17024,-27.25984 -28.12417,-5.93953 -57.59049,-8.38069 -85.31603,-13.87337 -4.30524,-58.80133 -0.71846,-119.36844 -20.58128,-175.85703 -11.3083,-39.44174 -31.5057,-75.52938 -45.20612,-113.99156 -0.27918,-8.72312 12.50479,-9.73721 18.07197,-13.77597 73.04087,-29.93906 142.69284,-70.92243 196.9472,-129.01821 32.36849,-32.14231 56.21544,-71.21361 83.14876,-107.6583 0.95384,-1.06104 1.83707,-2.23066 2.99902,-3.07691 z m 339.18038,188.39243 c 13.432,3.28504 22.12579,16.94922 28.5685,28.37766 18.06586,38.1011 3.23194,82.64898 -17.00868,117.09386 -26.79204,42.32961 -70.13121,80.89609 -122.76861,82.04827 -20.60645,0.96884 -45.94822,-12.11919 -44.6658,-35.37664 2.57169,-44.28432 30.9655,-81.9569 58.7261,-114.57003 27.12038,-29.77009 57.85435,-57.28373 93.28092,-76.7552 1.24283,-0.44595 2.53951,-0.79148 3.86757,-0.81792 z"
       style="opacity:1;fill:#2a6395;fill-opacity:1;stroke-width:1.99414778" />
    <path
       inkscape:connector-curvature="0"
       id="path5407"
       d="M 413.60637,105.92569 C 382.52,149.18436 353.0918,194.177 313.60688,230.45865 261.7797,283.04207 195.91479,318.40862 128.53983,346.82012 c -5.10317,3.52964 -18.43879,4.77036 -14.91248,13.83067 24.69286,61.03948 55.45959,122.00604 59.09221,188.8754 3.14003,33.13741 3.01427,67.17572 6.47708,99.82422 32.27793,5.73497 65.83623,6.82878 97.05891,16.77111 11.31572,5.89773 22.44662,17.76805 18.18492,31.54414 -9.019,75.6954 -28.29739,150.01473 -38.55482,225.49448 2.77399,5.61853 7.79886,-5.73762 10.59001,-7.04184 50.90044,-55.90016 97.35341,-115.80737 149.68962,-170.33994 9.67295,-10.97182 25.35413,-18.8404 39.40388,-10.72243 40.46337,18.19985 71.69741,51.36053 108.33832,75.50498 10.72594,-1.33895 16.82817,-13.84763 25.3245,-19.55103 65.26219,-64.36108 144.05673,-116.16949 232.37885,-142.23807 45.84121,-14.95764 94.25249,-19.36275 141.28586,-28.82728 1.6587,-9.52102 -6.92007,-18.8156 -9.72671,-27.71586 -33.96897,-68.15825 -62.37716,-141.98232 -60.00724,-219.30137 -1.18079,-42.42376 2.65996,-84.55606 8.977,-126.45652 -0.2672,-8.07165 -14.30801,-1.03729 -20.51234,-1.1456 -35.33644,8.98666 -70.95531,19.23684 -103.50096,35.8635 -5.47136,5.02979 5.34751,11.5181 6.87437,16.47119 10.07902,12.58843 18.98313,27.35562 17.09826,44.12052 2.78228,55.55861 -28.36635,106.21808 -66.50463,143.92918 -35.86436,35.80309 -85.03103,65.80913 -137.51381,59.36485 -20.59171,-2.56601 -45.85962,-13.83805 -46.64826,-37.72523 -4.86417,-44.16672 23.05191,-83.28217 48.80786,-116.39298 32.93449,-41.29888 77.32176,-71.16385 117.53598,-104.83669 10.927,-6.98704 -3.59018,-9.62642 -9.92399,-10.32516 -44.99015,-2.8825 -91.92042,-3.31972 -134.17264,14.71852 -52.00931,18.46798 -93.85421,58.06789 -121.93791,104.85412 -22.77279,37.7632 -40.90015,79.89978 -40.97898,124.73492 -0.37525,21.58398 -2.82068,43.74967 -1.08752,65.00144 11.35066,31.01773 35.96997,56.11996 66.59701,68.355 30.30411,14.32286 65.16382,11.99358 97.61381,9.00202 66.38672,-15.81834 124.93136,-53.0278 188.61445,-76.25278 3.66814,-2.50056 8.17429,0.0261 3.46639,3.18206 -25.63922,19.52404 -56.4205,31.04609 -84.76223,46.05821 -56.66048,29.69671 -120.08971,49.88674 -184.59961,45.45449 -49.36221,-2.05027 -104.06617,-15.42551 -135.20088,-57.16817 -17.828,-21.779 -21.19917,-50.64453 -19.76107,-77.82985 -0.13006,-40.9919 15.13772,-80.9145 35.19378,-116.15737 39.76723,-64.46529 99.55716,-117.72439 171.41073,-143.21729 32.50286,-13.19709 67.14039,-20.45614 102.28072,-19.89205 32.93973,-0.37743 66.26182,-1.7042 98.73757,4.666 49.8781,-17.18905 100.47416,-32.04356 151.62923,-44.84885 9.63764,-2.18079 14.10267,-14.10461 13.75651,-22.64059 -21.58713,-0.78809 -43.14901,6.54165 -64.80111,7.85765 -54.06603,5.28571 -108.92583,6.36592 -163.06533,1.31855 -91.98056,-12.79454 -179.66686,-49.16437 -257.24934,-99.6043 -5.14612,-2.49192 -10.45386,-6.83254 -15.92943,-7.4604 z m -5.76044,83.47377 c 13.00681,2.33354 22.61378,18.88538 14.82759,30.99498 -33.67186,67.31749 -92.48359,124.17392 -164.57172,148.1979 -12.23995,4.24127 -30.1796,2.64562 -33.46429,-12.4829 -4.36182,-16.92398 12.77377,-27.50014 26.3969,-31.95568 55.76001,-23.68903 96.44736,-71.15273 129.4582,-120.35515 6.17518,-9.65678 15.75851,-15.47737 27.35332,-14.39915 z M 231.75724,413.35938 c 20.12699,-0.32768 25.61055,21.75049 29.98482,37.06868 9.95054,40.6034 16.39061,84.04912 7.35482,125.3531 -3.95603,15.08778 -23.33588,24.41591 -36.52952,14.57052 -11.39876,-15.14559 -7.3325,-36.12644 -8.76724,-53.86534 1.62313,-34.6145 -7.20152,-68.2662 -13.19954,-101.98977 -0.43417,-11.21441 9.96969,-21.42341 21.15666,-21.13719 z"
       style="opacity:1;fill:#2a6395;fill-opacity:1;stroke-width:1.99414778" />
    <path
       inkscape:connector-curvature="0"
       id="path5409"
       d="M 396.33284,6.7557851 C 371.87384,8.8939931 362.73185,36.13957 352.50794,54.412067 304.25592,155.67963 216.31201,237.05263 111.44495,276.95964 c -30.658955,13.29019 -66.199079,17.76773 -92.753828,39.18895 -11.4226226,13.61428 -2.527827,33.16575 5.995893,45.94642 40.502431,66.587 76.162745,140.51124 75.720335,220.04945 2.03268,39.17015 -2.216917,78.58482 1.32522,117.6205 4.64889,17.8567 27.15853,19.56038 42.36133,20.18676 22.00847,2.62841 45.08692,-0.0957 66.45604,6.13444 7.02092,8.09251 -0.35135,20.65093 -0.43197,30.28629 -16.71778,95.70703 -38.4195,190.62415 -52.89979,286.73255 -3.57681,20.7772 17.2016,38.7871 36.37761,41.0553 25.73558,2.0914 41.55169,-21.6328 57.08638,-38.0407 63.88904,-70.94443 122.78966,-146.33652 188.33012,-215.77691 5.7806,-5.86058 14.3443,-14.84657 22.67563,-7.65721 34.35486,23.4857 59.4352,58.59127 94.09496,81.66657 17.87397,8.81192 37.53072,-3.25484 48.02313,-17.88112 61.42567,-79.1283 144.94787,-143.07946 241.72809,-171.74597 66.60513,-22.21303 137.36735,-21.38754 206.6864,-24.48283 19.9413,1.10669 33.4703,-20.64214 27.5714,-38.65999 -10.9773,-24.50905 -30.6076,-44.23621 -43.7741,-67.50684 -38.32109,-60.2507 -69.23619,-129.08067 -67.5198,-201.7493 -1.63373,-48.0732 -2.59874,-97.51094 15.89044,-142.87905 11.10982,-34.17856 28.58986,-66.15357 38.21586,-100.7892 5.9807,-22.99634 -22.1609,-42.707568 -42.72618,-33.03586 -57.12358,16.70193 -113.57336,38.78205 -173.65709,41.33468 C 679.35844,157.5375 549.78484,116.86635 450.47864,37.505388 433.59967,26.729239 417.47695,8.012918 396.33284,6.7557851 Z M 392.58213,135.68211 c -18.03737,25.10546 -36.52176,50.02805 -57.49922,72.79808 28.24013,-30.4522 50.73437,-65.48315 75.1155,-98.88558 6.26346,-5.21827 -9.46738,13.71883 -11.2635,17.2229 -2.11761,2.95487 -4.2352,5.90973 -6.35278,8.8646 z M 420.09515,108.321 c 29.37684,15.54433 56.71258,34.91472 87.29888,48.37903 14.64518,7.125 29.46899,13.89145 44.5135,20.13085 -46.5326,-17.31444 -90.06482,-43.20849 -131.81238,-68.50988 z m -13.05934,81.31605 c 3.7006,-0.1479 11.12605,4.06502 10.55885,4.58809 -3.16357,-2.19703 -6.9231,-3.60894 -10.55885,-4.58809 z m -14.84316,2.73027 c -23.02068,22.67018 -37.00572,52.81051 -60.66413,75.00801 -26.08199,28.24654 -59.78403,47.41471 -93.92126,64.16948 28.81513,-16.52959 60.11149,-30.57823 83.05986,-55.58793 26.5026,-23.88106 44.51997,-55.05204 68.44473,-81.13583 -0.79887,0.6417 4.2814,-3.82975 3.0808,-2.45373 z m 519.36643,10.10316 c 7.03028,-1.66364 0.64714,14.94857 2.2551,6.43035 1.40739,-6.0851 -5.7316,-6.14188 -9.69421,-5.31254 2.46646,-0.50941 4.85321,-1.10449 7.43911,-1.11781 z m -40.7554,6.39918 c -11.44834,1.81649 -11.18699,1.31907 -0.11408,-0.0591 0.23349,-0.0395 3.84848,-0.50548 0.11408,0.0591 z m -195.77701,2.26679 c 7.24699,1.14674 -15.51092,-2.28932 -0.34764,-0.051 z m -250.53818,3.51702 c -9.84835,26.61878 -28.2678,49.80406 -46.25824,71.58007 -12.32653,13.95918 -25.84093,26.76061 -40.38981,38.33564 35.8214,-30.20181 68.26135,-66.7823 86.64805,-109.91571 z m 487.0589,2.59395 c -6.87449,12.24935 -23.40021,11.85822 -35.21306,15.56759 11.70499,-3.6053 27.79876,-6.12239 35.21306,-15.56759 z m -13.14111,25.92392 c 3.3568,-0.47094 4.4837,4.72673 1.54624,0.36221 -0.14532,-0.22829 -2.30909,-0.41255 -1.54624,-0.36221 z m -5.1957,0.17917 c -38.81257,8.07454 -76.96415,20.55905 -113.10945,36.83331 -2.86454,1.68782 -5.62448,4.82482 -1.69425,0.7556 31.46123,-16.71993 66.70528,-25.90689 100.99656,-35.14297 4.17625,-0.9953 11.65931,-2.3582 13.80714,-2.44594 z m 8.47904,6.24729 c 0.003,4.03904 -2.09437,18.5488 -2.00428,16.13385 0.37809,-4.04094 1.78293,-16.19354 2.00428,-16.13385 z m -102.14166,5.4099 c -10.5033,3.45915 -21.03824,6.82439 -31.62593,10.01748 11.39765,-3.57774 22.75775,-7.27583 34.15367,-10.85875 l -1.89211,0.62973 z m -135.31383,19.30273 c 12.52996,-0.0144 25.00747,0.34453 37.47207,1.36318 -27.6152,-0.67625 -55.37669,-0.51722 -82.87788,2.24733 15.04405,-2.58905 30.14902,-3.61438 45.40581,-3.61051 z m 49.07474,2.65238 c 5.52554,0.42473 14.82912,3.38987 6.43034,8.35438 -44.68358,36.07465 -92.82917,69.73967 -127.53661,116.42213 -13.70037,17.92556 -25.38568,37.43131 -34.30873,58.16706 24.74095,-58.52179 70.94258,-104.28778 120.56704,-142.4131 13.65822,-11.99926 30.08513,-21.97036 41.3484,-36.19555 0.40313,-3.20195 -9.22274,-4.78905 -6.50044,-4.33492 z m -149.3235,4.00387 c -47.87113,16.95155 -93.87636,41.51175 -129.29835,78.51751 -12.60489,12.26239 -24.74633,25.03244 -35.88875,38.64646 41.21795,-52.24495 95.88855,-95.41131 160.03424,-115.37626 0.47752,-0.16826 8.0484,-2.8195 5.15286,-1.78771 z m 40.50224,-0.17138 c -66.97661,15.5674 -123.58516,62.73005 -156.73146,122.25061 -8.33239,14.53064 -15.93809,29.51761 -22.18099,45.07085 27.8816,-77.16907 90.34941,-145.15453 171.67215,-165.54019 1.5089,-0.43671 8.11511,-2.03718 7.2403,-1.78127 z m -357.48215,3.86755 c -40.06017,27.48847 -84.7094,46.79385 -128.26421,67.77376 -10.33532,5.06055 0.99641,16.59646 1.94861,23.95738 5.87764,15.27654 12.33444,30.3583 18.39793,45.53401 -7.99567,-22.13126 -21.18517,-42.91524 -25.88108,-65.951 24.06549,-15.90055 52.51602,-24.11144 77.54607,-38.52599 21.1126,-10.96835 41.71281,-22.95922 61.42111,-36.29738 -1.72281,1.16975 -3.44563,2.33949 -5.16843,3.50922 z m 532.97881,5.73708 c 6.14973,8.69357 12.91388,17.08407 17.56176,26.72236 -5.25254,-9.8463 -12.55868,-18.37667 -18.32123,-27.83629 z m -25.66297,4.5959 c 16.30184,4.67258 24.2562,22.89644 30.39907,37.15657 12.60706,37.59094 -3.32047,77.87187 -22.71029,110.22761 -24.82822,40.13807 -66.2156,73.90605 -114.39125,78.38293 -19.68364,2.24988 -45.47108,-5.92529 -49.50316,-28.21019 -2.77279,-29.80311 12.99907,-57.85533 28.17022,-82.54222 29.13524,-42.49742 67.17413,-79.10706 109.90476,-107.69736 5.50375,-3.02514 11.46811,-7.13402 18.13065,-7.31734 z M 225.49437,343.8057 c -3.15883,8.31115 1.97669,20.35586 6.95614,23.99598 -7.44248,-4.84665 -10.97316,-16.85146 -6.66793,-24.91516 z m 80.92267,2.66795 c -16.76606,9.75779 -34.4706,18.96778 -53.54598,23.10017 19.76891,-5.25982 38.33502,-14.30689 55.94518,-24.5802 l -1.69718,1.04696 z m 489.59442,44.8099 c -0.61837,2.80116 -7.79985,20.17844 -4.26483,11.37288 0.85408,-1.72864 6.6028,-18.95347 4.26483,-11.37288 z m 99.09981,25.46433 c 2.71967,21.87915 -0.51892,-3.70519 0,0 z m -671.95379,-1.03602 c -4.63659,1.26652 -10.73232,11.06895 -10.49655,10.96003 2.44937,-4.80918 6.08484,-9.4105 11.29888,-11.3534 z m 21.83437,1.40992 c 7.60743,5.74386 -3.48398,-2.47976 0,0 z m 533.99926,12.59974 c -14.31424,24.84525 2.81071,-5.04459 0,0 z m -523.01588,3.52482 c 3.76946,8.38577 6.92554,20.88088 8.06617,27.58702 -2.61433,-9.72506 -5.16377,-19.48881 -8.67765,-28.93851 z m 167.10334,21.51889 c -12.77495,35.17688 -12.36278,73.14528 -13.78377,110.02475 0.60684,-38.10932 0.0445,-77.46989 14.91716,-113.12503 l -0.68469,1.87292 z m -207.98727,2.4732 c 6.59055,25.73647 8.09087,52.26376 8.69324,78.73769 -0.68822,-27.62661 -4.00983,-55.09699 -9.40599,-82.18461 l 0.40381,1.95284 z m -55.51286,21.1995 c 1.64544,5.29856 4.30395,14.51937 5.05158,17.84607 -2.2847,-8.55397 -4.85242,-17.02765 -7.43521,-25.4955 0.79454,2.54982 1.58908,5.09962 2.38363,7.64943 z m 110.15328,11.50919 c 1.66976,11.57479 1.27123,12.5453 -0.12072,0.25318 -0.53127,-5.06707 -0.68627,-5.25775 0.12072,-0.25318 z m 460.35602,0.83349 c -19.38379,18.14086 -41.04989,34.50115 -65.7913,44.56454 24.77625,-10.93964 46.98763,-27.06613 66.73775,-45.47201 z m -381.53653,6.3252 c -3.83287,13.61275 3.05976,-10.90593 0,0 z m 565.10718,1.56961 c 12.92846,40.73663 33.45538,78.42154 50.24706,117.48723 1.5825,7.98574 -11.60887,4.89031 -16.32614,7.14334 -13.22244,1.94609 -1.38855,-0.23643 5.23196,-1.61921 4.68848,-0.49443 13.98171,-2.56769 8.99488,-9.21641 -16.81411,-38.79381 -36.66424,-76.43738 -49.176,-116.93029 l 0.62142,1.89486 z m -361.38864,11.4975 c 0.48669,7.15965 7.01483,17.54713 9.90062,19.89085 -5.79934,-4.77641 -10.16776,-14.27593 -9.90062,-19.89085 z m 39.00272,33.39809 c 11.48671,1.86329 23.15357,1.45126 34.7418,1.69425 -11.87531,1.5114 -24.10667,0.88649 -35.85571,-1.8812 z m -322.80655,32.63468 c -0.66788,4.96212 -4.76169,10.25814 -8.17912,12.46734 3.60989,-3.31198 6.61957,-9.5499 8.17912,-12.46734 z m 75.60234,8.93083 c 1.34653,8.48967 -0.78884,-4.86203 0,0 z m 71.32193,11.83637 c 21.58637,39.21394 64.60305,68.24915 110.34804,65.86139 26.32501,0.31308 53.53665,1.7175 78.20106,-9.28224 46.4863,-16.42916 90.3672,-39.14195 135.66349,-58.43698 -54.12588,23.02589 -106.14661,52.5756 -163.56199,66.77091 -39.03788,4.81899 -82.78888,6.10909 -116.8226,-17.03657 -22.49674,-14.12817 -41.04951,-35.26817 -49.92339,-60.34773 2.0318,4.15708 4.0636,8.31414 6.09539,12.47122 z m 352.10731,-10.8354 c 2.04829,2.06643 -6.13293,6.20341 -8.04671,8.08954 -7.54047,5.26465 -15.83586,9.56239 -23.8986,13.96683 10.44094,-6.8583 23.1572,-11.81732 31.52466,-21.12939 0.0749,-0.52722 -0.59152,-1.20503 0.42065,-0.92698 z m -521.27491,7.93764 c -3.80232,0.0884 -0.0749,-0.0141 0,0 z m 101.14848,3.85977 c 6.07627,15.31502 15.3256,29.41733 27.34942,40.72034 -12.55238,-11.56849 -22.53742,-26.215 -27.97648,-42.35227 z m 337.40044,36.22571 c -26.53137,13.35856 -53.89985,25.20328 -82.37154,33.82651 28.66929,-9.48883 56.38042,-21.60326 83.67243,-34.46914 z m 174.93972,4.62315 c -76.93172,18.08114 -150.14899,52.30435 -212.24819,101.33543 63.09907,-50.08156 137.7725,-85.56178 216.65325,-102.37145 -1.46835,0.34535 -2.9367,0.6907 -4.40506,1.03602 z m -483.90409,0.86856 c -0.38689,-0.32248 -1.58631,-1.47422 0,0 z m -197.32325,2.19667 c -0.74856,3.16976 3.37507,8.00225 4.03504,7.83638 -6.3792,2.36023 -3.35137,-12.76605 -4.03504,-7.83638 z m 39.75054,13.1645 c 10.27026,1.3787 20.62912,2.87194 30.84697,4.60756 -11.11464,-1.84253 -22.28683,-3.3123 -33.43314,-4.94642 l 1.97726,0.25908 z m 39.19747,6.18497 c 5.54249,1.33197 -2.82768,-0.36064 0,0 z m 18.83534,5.3359 c 7.38228,2.88203 15.65314,11.86845 17.25405,17.51111 -3.40511,-8.25694 -10.75997,-14.20981 -18.59777,-18.07585 z m 167.82777,65.16422 c 10.84406,0.97351 20.0767,7.48115 29.22675,12.72829 -9.74069,-4.85758 -19.46571,-10.52439 -30.22771,-12.71269 l 0.98539,-0.0156 z m -5.54231,0.44013 c -22.81505,8.71066 -36.93453,30.81333 -53.60814,47.55769 -41.75424,46.58192 -80.17736,96.1876 -123.40753,141.3839 52.69035,-58.20361 101.04554,-120.42393 156.30874,-176.25197 6.17793,-5.46081 13.02968,-11.69025 21.59494,-12.85322 z m 198.53844,16.25697 c -24.95811,19.86756 -46.44533,44.4406 -72.11259,63.01041 -21.55021,-12.64613 -39.75586,-30.43965 -59.89065,-45.21886 20.63282,13.67766 38.53317,32.15531 60.65792,43.20134 26.10742,-18.09309 47.14241,-42.88024 72.61113,-62.02502 z m -364.91346,80.68119 c -5.85485,31.3346 -11.59816,62.76077 -16.3972,94.30528 3.65962,-31.91125 10.57549,-63.77213 16.59973,-95.47762 z"
       style="opacity:1;fill:#2a6395;fill-opacity:1;stroke-width:1.99414778" />
    <path
       inkscape:connector-curvature="0"
       id="path5411"
       d="M 395.74084,6.5922026 C 372.2075,9.269516 362.96792,35.283213 352.73046,53.029509 311.15302,138.87302 243.05343,212.43496 157.32252,255.29735 c -39.35178,21.8631 -83.635131,32.29995 -124.551624,50.58449 -14.735142,5.21021 -24.3510097,21.86563 -17.83438,36.81773 13.179837,29.49406 32.228606,56.09286 45.475915,85.67046 22.329824,46.75094 40.698249,97.31002 38.644806,149.7981 1.260013,40.60059 -0.265349,81.45312 2.056063,121.9201 8.94213,20.05762 34.12112,19.31137 52.5995,20.68205 18.90629,2.35905 39.51039,-0.41682 57.23053,6.88549 5.34531,8.52051 -1.32102,20.17872 -1.30088,29.62789 -16.63324,96.92563 -39.18799,192.89261 -53.27334,290.24194 1.16782,28.4142 37.71243,47.2508 61.38625,31.0573 34.38559,-29.2327 61.42515,-66.0151 91.47726,-99.48145 44.80846,-51.10786 87.10527,-104.61752 134.83124,-153.03138 5.46132,-6.75531 14.99332,-7.65513 20.93076,-0.86464 31.85848,25.31088 58.52271,56.96951 92.07744,80.11255 17.96942,7.04688 36.44442,-4.40796 46.769,-18.88209 70.50038,-89.73744 169.77021,-159.96811 282.98592,-182.13346 57.076,-11.95209 115.78282,-10.41273 173.68562,-14.90937 21.6413,-4.53399 26.0635,-34.76481 13.1179,-50.19451 -41.5582,-61.41062 -86.30739,-124.58504 -99.27523,-199.22585 -8.34218,-49.30532 -8.90276,-100.1385 -3.00102,-149.71483 8.59101,-54.51749 37.52935,-103.16953 52.45745,-155.87274 0.7803,-22.40918 -25.90206,-38.011339 -45.81089,-28.91514 -58.21498,17.38467 -115.99042,40.71526 -177.57497,40.82243 -54.06677,3.16136 -108.58701,-0.15358 -160.84981,-14.68429 C 570.4695,113.69387 505.6741,80.827986 449.76731,36.558495 432.85648,26.018 416.62808,8.1459553 395.74084,6.5922026 Z M 409.81282,110.79811 c -5.96148,9.14609 -12.61996,17.81462 -18.9522,26.70288 6.68056,-8.89435 11.9943,-18.859 19.27936,-27.27153 z m 501.04519,92.68892 c 3.96229,-0.96217 3.48446,7.55314 1.85005,1.56183 -0.48108,-0.64439 -1.2044,-1.20451 -1.85005,-1.56183 z M 370.2064,218.3925 c -31.10356,47.41742 -74.94063,86.3918 -126.72185,109.93519 35.69138,-17.00677 68.51092,-40.18338 94.53203,-70.14929 11.76819,-12.89209 22.4301,-26.73179 32.86751,-40.70507 z m 538.75873,2.24341 c -2.05647,2.9863 -14.05521,7.90722 -6.27844,4.15188 1.94878,-0.93615 5.61536,-3.48139 6.27844,-4.15188 z m -47.2831,30.30172 c -27.57797,7.8622 -54.96563,16.72976 -80.99668,28.86449 26.649,-13.24424 55.53825,-21.81714 84.20211,-29.77199 l -1.91875,0.5432 z m -143.50465,27.59868 c 7.41791,2.09609 1.17122,7.07763 -2.60564,9.6981 -9.57151,8.05125 -19.61164,15.52288 -29.40199,23.30271 11.10968,-10.02448 25.2231,-18.3304 34.16147,-30.01348 -0.22564,-1.20725 -1.70632,-2.55288 -2.15384,-2.98733 z m -166.3049,6.68741 c -6.29563,2.35214 -12.56615,4.77748 -18.69125,7.54815 6.51835,-2.90062 13.15515,-5.77816 19.77401,-7.98827 z m -179.55899,7.3612 c -6.36107,6.87887 -14.18882,14.27497 -2.91333,2.90165 0.68768,-0.66053 7.4552,-7.89274 2.91333,-2.90165 z m 382.08573,2.96007 c 15.29182,4.40685 23.00536,21.39067 29.39808,34.6639 5.65594,18.0872 3.61278,37.7933 1.89289,56.42425 -14.73903,55.36595 -54.19707,106.54671 -108.52136,127.29829 -21.52587,5.9576 -47.89028,11.45104 -67.28692,-2.79258 -18.00765,-16.15731 -10.85275,-43.55684 -3.24826,-63.34925 26.31517,-59.95016 75.28958,-107.63624 128.68093,-144.15897 5.86435,-3.4622 11.99716,-7.97101 19.08464,-8.08564 z m -237.00368,4.61147 c -9.3032,4.57091 -23.27454,12.26686 -29.51885,15.78958 10.603,-6.55562 21.81376,-12.05536 33.01249,-17.50331 l -1.79034,0.87822 z m 9.54229,14.77305 c -6.6311,4.54251 -13.03044,9.42201 -19.1703,14.60946 5.70833,-5.2393 14.06437,-11.39211 19.1703,-14.60946 z m -83.90999,36.24519 c -3.73354,3.57929 -19.17237,18.28081 -8.50629,7.92207 2.30942,-2.35124 20.28347,-19.13941 8.50629,-7.92207 z m 26.0213,19.31051 c -9.13884,11.98931 -17.30482,24.70669 -24.58411,37.9044 7.87,-14.86023 16.68312,-29.29611 27.78954,-42.01343 -1.06848,1.36969 -2.13697,2.73937 -3.20543,4.10903 z m -349.06155,5.00096 c 1.43536,3.62032 8.20657,19.83531 6.2614,15.92155 -2.129,-4.6383 -7.37576,-18.04061 -7.44358,-18.94458 l 0.72627,1.85719 z m 138.83086,65.1837 c 1.92112,5.83307 2.18447,9.12028 0.19084,1.18012 0.47159,1.83809 -0.74771,-3.04853 -0.19084,-1.18012 z m 162.80736,18.80418 c -1.07534,3.89467 -6.07317,19.57914 -2.88607,8.53744 0.76645,-2.6574 2.26276,-7.32041 2.88607,-8.53744 z m -203.53938,13.58124 c 1.55874,8.03502 2.75056,16.1512 3.32617,24.31925 -1.24773,-7.90707 -2.53829,-17.82327 -3.32617,-24.31925 z m 192.47031,50.11076 c -0.33059,10.01922 -0.71476,13.66827 -0.11297,1.46835 -0.0339,1.17453 0.23936,-4.79327 0.11297,-1.46835 z m 16.94246,93.13292 c 3.88063,4.84367 8.10844,9.41511 12.68543,13.6085 -5.03644,-4.36263 -9.77276,-9.125 -13.51113,-14.66789 z m 536.12195,1.24634 c -2.55532,6.0744 -12.10109,4.17487 -17.57343,5.83444 5.51268,-1.86088 13.45569,-1.86485 17.57343,-5.83444 z m -605.2628,2.02141 c 3.07888,4.77654 -3.93531,-5.82257 0,0 z m 300.68788,11.8909 c -3.61958,1.70049 -21.88015,9.54547 -16.40571,7.10992 3.73643,-1.56752 24.38729,-10.69003 16.40571,-7.10992 z m -480.30138,14.69125 c 4.11676,6.02873 0.0387,1.73973 0,0 z m 287.51948,2.39142 c 8.65626,4.67211 17.7999,8.47188 27.25984,11.17814 -9.33,-2.03848 -20.70801,-7.14308 -27.25984,-11.17814 z m 111.53207,12.82175 c -2.27315,0.56734 -8.65038,0.77369 -3.0068,0.17138 0.96473,-0.0975 1.95472,-0.21186 3.0068,-0.17138 z m -128.07725,71.70752 c 4.54207,1.69892 8.96188,3.71965 13.26964,5.9435 -3.74489,-1.91185 -12.34073,-5.24266 -13.26964,-5.9435 z m 80.38908,52.49438 c 11.73516,7.94078 22.39936,19.34491 35.88686,23.80125 8.83479,-5.45277 16.32842,-12.85984 24.2803,-19.49746 -8.65177,6.75658 -16.76729,17.44722 -26.55098,20.89181 -14.36518,-9.8728 -28.20432,-20.51352 -41.69794,-31.54414 2.69391,2.11619 5.38784,4.23236 8.08176,6.34854 z m -195.57837,52.20617 c -13.06803,15.35277 -26.19116,30.66296 -39.48959,45.81477 13.50325,-15.53666 26.90436,-31.16159 40.30749,-46.78458 z"
       style="opacity:1;fill:#2a6395;fill-opacity:1;stroke-width:1.99414778" />
    <path
       inkscape:connector-curvature="0"
       id="path5413"
       d="M 395.33188,6.5337803 C 372.87301,8.358615 363.92888,33.374945 353.9789,49.998643 320.614,120.02697 269.01734,180.93766 205.99484,226.0188 155.04427,262.70677 94.763431,281.4637 36.7733,303.59577 c -14.592851,5.06448 -30.2178057,20.34364 -22.526167,36.93827 15.185033,36.13292 39.034707,67.93168 53.507244,104.45185 17.773242,39.32872 30.123145,81.42605 30.673633,124.85283 2.87501,42.64315 0.650182,85.60547 2.20623,128.24368 5.50633,16.94876 25.06851,22.11817 41.01499,21.87046 22.77217,2.98815 46.70228,0.71119 68.65924,7.74574 4.45846,13.63357 -2.25236,29.14984 -3.48074,43.33032 -15.99686,90.42722 -36.52354,180.13541 -49.73419,271.04398 -4.38151,26.4746 26.08243,48.8248 50.74561,41.0553 20.73492,-6.7826 32.60903,-27.4571 47.64907,-41.9118 62.01463,-68.99315 119.54483,-142.03469 183.7188,-209.01588 5.79904,-5.56852 14.38442,-15.31121 22.56659,-7.8169 33.87557,23.16328 59.50774,56.70543 93.35884,79.88665 17.29351,8.61295 36.9152,-1.86726 47.52068,-16.14404 47.63536,-58.95955 105.18922,-111.12549 173.78806,-144.49881 65.95398,-35.02842 140.74491,-48.23598 214.73932,-49.80833 24.79969,-2.26776 50.57119,0.27348 74.79259,-6.14754 18.0513,-9.34806 19.1389,-35.53944 6.7303,-50.10296 -42.078,-63.01493 -87.73153,-127.73007 -99.20889,-204.45468 -6.70731,-50.31265 -8.3937,-102.17421 0.23758,-152.38093 9.64009,-49.20284 34.34221,-93.64752 49.27341,-141.15605 5.9011,-19.04799 -13.8228,-36.44087 -31.55197,-36.95016 -39.0848,8.05681 -76.25938,23.93274 -115.1804,33.00151 -59.70851,14.1366 -122.40119,14.31969 -183.05686,6.44989 C 602.16219,129.54248 516.34271,89.056462 444.50862,32.305295 429.29902,22.652962 414.26123,7.5807423 395.33188,6.5337803 Z M 352.04874,242.71177 c -9.45417,12.17475 -21.56196,25.05786 -31.98036,34.46136 12.30796,-12.76007 24.49515,-25.66444 35.80508,-39.32601 -1.2749,1.62154 -2.54982,3.24308 -3.82472,4.86465 z m 367.77225,36.37371 c 5.07417,4.01342 -5.99464,9.21438 -8.13351,12.16424 -3.39136,2.55221 6.81574,-5.51454 7.78298,-9.27428 0.79822,-0.70459 -1.04862,-2.9453 0.35053,-2.88996 z m 34.77295,17.17226 c 13.12473,3.85164 21.0652,17.73334 27.03006,29.17999 7.66925,23.20452 6.53498,49.05735 0.50633,72.43586 -18.85048,53.67498 -60.05322,104.88529 -117.35481,118.88157 -19.5592,4.61578 -45.71953,6.67579 -59.33758,-11.31054 -15.32914,-24.50931 -0.17507,-53.56911 11.00265,-76.51489 25.83661,-48.90311 68.22232,-86.85878 111.44268,-120.01772 8.11076,-5.06165 16.6567,-12.49785 26.71067,-12.65427 z m 206.61241,323.61668 c -1.58351,1.6422 -9.05355,2.57211 -3.09639,1.09445 0.9468,-0.30577 2.50936,-0.88397 3.09639,-1.09445 z m -490.57982,31.22476 c 2.54539,1.19968 2.02837,0.95572 0,0 z m 14.12652,5.97467 c 0.7583,0.28179 -0.84837,-0.28243 0,0 z"
       style="opacity:1;fill:#2a6395;fill-opacity:1;stroke-width:1.99414778" />
    <path
       inkscape:connector-curvature="0"
       id="path5415"
       d="M 395.1761,6.1442983 C 374.36354,8.1532557 365.11306,31.111083 355.50344,46.630951 316.353,125.98472 257.31368,196.78637 180.45701,241.83139 136.86749,268.93084 87.249759,283.12859 40.011921,302.17948 26.25827,307.46673 9.0362498,318.33906 12.79826,335.63436 c 9.218395,30.30361 30.057334,55.51191 42.798051,84.3234 24.410321,48.00224 42.244265,100.23316 42.726657,154.50427 3.150202,40.86984 -0.154602,82.0461 2.852642,122.88814 2.72763,18.07928 24.83174,21.71497 39.88606,22.9384 22.52764,3.05998 46.48229,0.39721 68.05887,8.15006 6.68562,9.02149 -0.67075,21.91856 -0.68548,32.06995 -16.90317,96.02529 -38.58125,191.3205 -52.39701,287.86222 1.69597,25.3403 30.77558,42.8778 54.35611,33.9667 21.21711,-9.2815 34.06776,-30.5551 50.12444,-46.321 59.99533,-66.59004 115.05923,-137.66647 177.68746,-201.82183 6.34503,-4.35091 14.46493,-17.63238 22.99112,-10.20832 34.08577,23.7162 59.53961,58.35534 94.8116,80.56045 17.83853,9.13264 37.05218,-3.50669 47.90682,-17.5543 48.75223,-57.90684 105.08924,-111.32346 174.16476,-144.03554 62.60236,-32.22293 132.73304,-45.70951 202.62345,-48.4461 28.37449,-2.98464 57.63379,-0.27613 85.46019,-7.0068 19.2043,-9.05592 18.2234,-36.27366 6.33,-50.97657 -45.095,-67.50583 -94.12262,-138.50122 -101.03982,-221.82515 -6.15799,-64.50994 -5.49182,-132.03019 20.41608,-192.44227 10.03304,-29.67672 25.96904,-57.67632 31.96864,-88.53705 1.598,-16.76176 -15.9682,-29.30703 -30.8703,-31.69605 -40.83057,8.16585 -79.46936,25.266 -120.29782,33.81449 C 728.56322,167.66129 571.64339,131.05919 455.53687,39.993426 437.14932,28.192963 420.51023,11.032993 398.59574,6.2923015 397.46185,6.2017504 396.31635,6.0805594 395.1761,6.1442983 Z M 753.7293,297.31713 c 15.1509,2.1968 21.823,18.89912 28.3504,30.89372 5.70243,19.88787 4.76115,41.55204 1.5813,61.7913 -14.65814,52.33716 -52.18216,100.80243 -103.3062,121.46775 -22.83934,7.76411 -52.46426,14.52587 -72.26449,-3.52091 -17.16442,-19.63241 -6.36627,-48.05011 3.29449,-68.71409 28.89552,-55.84263 74.98401,-102.4557 127.31439,-136.6325 4.62172,-2.57875 9.59754,-5.25914 15.03011,-5.28527 z"
       style="opacity:1;fill:#2a6395;fill-opacity:1;stroke-width:1.99414778" />
    <path
       inkscape:connector-curvature="0"
       id="path5417"
       d="M 396.24715,6.0040848 C 372.34424,7.5422303 363.04166,33.881704 352.92898,51.628004 305.91402,144.05487 230.41375,224.31942 134.07901,265.34869 99.288297,281.7029 61.094238,290.25725 27.251936,308.62768 13.805228,315.0464 9.1473654,331.63041 15.649268,344.67035 c 13.828979,32.16396 34.55808,60.87243 48.034287,93.29239 22.067128,45.17052 34.692745,94.55315 34.695876,144.90034 1.794669,38.95848 0.05967,78.27207 2.585869,117.046 6.39044,14.76999 22.90219,20.20434 37.86176,20.03556 23.24991,3.61369 48.11607,0.58686 70.25064,9.16 5.65684,8.54737 -1.2301,20.47074 -1.07497,30.13422 -15.74074,95.67997 -39.04113,190.14408 -51.2753,286.39394 -2.19485,22.462 21.85212,40.9597 43.21692,38.7924 23.25354,-0.8769 36.49127,-23.8044 51.75437,-38.0836 64.83792,-71.52817 124.09602,-148.11064 192.00293,-216.81683 4.5306,-4.31296 11.09679,-11.73115 16.93468,-5.07883 34.24719,23.54705 60.05328,57.58582 95.04918,80.01129 18.15723,9.7708 37.80515,-3.73783 48.82936,-17.9863 48.8816,-57.33829 105.23109,-110.46833 173.68709,-143.22445 66.74253,-33.99007 141.74833,-46.98805 216.04565,-49.21519 24.17769,-2.6161 49.76369,0.97739 73.05749,-6.96345 17.6698,-10.58063 17.8866,-37.36556 4.7517,-51.81278 -43.8563,-64.7687 -90.11318,-133.05007 -99.0764,-212.81684 -5.20881,-50.37108 -6.98249,-102.18474 3.84029,-151.95639 10.7609,-47.69848 36.71561,-90.48501 47.73881,-138.01295 -0.369,-16.50429 -17.8826,-29.64439 -33.5461,-30.24327 -48.98131,10.74469 -95.68274,31.30703 -145.4793,38.48082 C 718.14244,160.62781 583.43507,130.19168 477.92543,55.596824 452.28988,39.94518 430.74017,16.605734 402.01929,6.5805182 400.12547,6.1730002 398.18572,5.9515393 396.24715,6.0040848 Z M 752.66602,296.97438 c 17.85851,4.06092 26.71799,24.24108 31.17414,40.30749 11.10544,58.28734 -21.78062,116.60282 -66.60532,152.15893 -26.83235,20.33545 -63.14514,36.73434 -96.77848,25.33581 -18.72838,-6.46672 -25.27889,-29.36099 -18.8704,-47.01048 18.05715,-63.17529 67.73621,-110.52952 117.16007,-150.92037 10.56144,-7.352 20.97957,-17.29245 33.91999,-19.87138 z"
       style="opacity:1;fill:#2a6395;fill-opacity:1;stroke-width:1.99414778" />
    <path
       inkscape:connector-curvature="0"
       id="path5419"
       d="M 395.72526,6.0819812 C 371.99814,7.4491582 363.12948,33.518191 352.85639,50.828247 305.57581,144.12371 228.88001,225.45128 131.14588,265.86203 96.923713,281.96593 59.369436,290.69148 26.254862,309.13013 9.8188952,317.4004 9.2206131,339.34354 18.776808,353.0559 c 37.360781,66.94467 76.735437,137.76186 78.453355,216.31828 2.318185,43.17665 -0.489583,86.6732 3.084697,129.7014 5.63039,16.68665 24.83771,21.28604 40.48623,21.3852 22.04606,3.50448 45.29957,1.40125 66.62131,8.1648 7.01025,8.26525 -0.0303,20.74253 0.20759,30.45515 -14.8377,93.76676 -38.45123,186.1641 -50.24434,280.44887 -2.50075,12.7726 0.92128,26.2913 11.71952,34.3289 12.23384,12.9991 33.44891,13.2793 48.51387,5.7215 27.32429,-21.2812 47.91125,-49.9456 71.35268,-75.2196 51.62912,-58.63475 100.49214,-120.04628 155.69194,-175.32248 4.41738,-5.03309 12.23825,-9.34797 17.74092,-3.04185 34.21535,24.14978 60.47269,59.11892 96.833,80.55657 18.65589,7.16806 36.01335,-8.64188 47.15836,-21.80114 42.20247,-49.29964 89.65898,-95.19483 146.46784,-127.33347 59.64711,-35.62324 127.97888,-54.6454 196.95986,-59.83475 37.2828,-4.49835 75.12736,-2.74919 112.22346,-8.22528 21.1631,-6.54349 24.798,-36.14424 11.5053,-51.75435 -43.7654,-67.07091 -92.53052,-136.34074 -100.73037,-218.35294 -4.41559,-45.71767 -4.38553,-92.40946 2.03566,-137.85561 9.45561,-50.31143 35.50091,-95.44816 49.22661,-144.4277 3.1348,-20.96031 -20.4312,-39.673487 -40.48273,-32.94238 -56.55239,13.51162 -111.35285,36.714 -169.98376,39.99411 -76.03077,5.50001 -153.57576,-2.34153 -224.8536,-30.3077 C 528.44122,92.474379 476.16635,54.788758 424.9364,17.431486 416.11732,11.906991 406.52044,5.855157 395.72526,6.0819812 Z m 358.339,292.0452788 c 18.55122,5.17234 26.49498,26.71759 30.05631,43.91019 8.51775,53.64479 -20.93669,106.92519 -60.50992,141.66238 -26.91214,23.15738 -64.11312,40.9995 -100.09297,32.00763 -16.91556,-4.31189 -26.38068,-22.66088 -22.76132,-39.23641 9.15946,-49.486 43.34692,-89.97513 77.94579,-124.59244 21.19595,-19.2036 42.41261,-39.7583 68.25016,-52.5985 2.27325,-0.80659 4.6874,-1.33725 7.11195,-1.15285 z"
       style="opacity:1;fill:#2a6395;fill-opacity:1;stroke-width:1.99414778" />
    <path
       inkscape:connector-curvature="0"
       id="path5421"
       d="m 752.19085,298.97243 c -20.24935,5.64138 -35.752,21.87641 -52.05266,34.44728 -41.42606,36.21339 -81.11105,79.28627 -97.02157,133.15071 -4.8673,15.7223 -3.20165,35.83645 12.47121,44.86444 23.87521,12.87994 53.67958,4.84773 76.4722,-6.81975 51.33301,-28.28362 90.59906,-82.75215 93.43153,-142.21944 -0.14241,-22.5572 -6.50403,-49.02218 -26.6951,-61.84584 -2.0591,-0.96604 -4.31927,-1.5959 -6.60561,-1.5774 z"
       style="opacity:1;fill:#2a6395;fill-opacity:1;stroke-width:1.99414778" />
    <path
       inkscape:connector-curvature="0"
       id="path5423"
       d="m 752.6738,299.00748 c -23.38748,7.714 -41.09245,26.79914 -59.73777,42.12074 -40.66894,36.70486 -79.76791,80.72186 -91.77461,135.69726 -4.58793,22.27274 16.32221,41.60834 37.81091,40.98908 41.83311,-0.0211 79.11822,-26.39989 105.48341,-57.01237 29.43483,-35.4797 50.57355,-85.15177 34.87032,-131.08405 -4.69226,-11.73447 -12.88123,-28.49319 -26.65226,-30.71066 z"
       style="opacity:1;fill:#2a6395;fill-opacity:1;stroke-width:1.99414778" />
    <path
       inkscape:connector-curvature="0"
       id="path5425"
       d="M 395.28125,5.8833454 C 373.38929,7.2882941 364.64765,31.610966 354.48691,47.464441 307.69968,138.8541 234.74244,220.15568 139.44686,261.71661 c -37.10841,18.24841 -77.936951,27.98304 -114.216336,47.89257 -13.189662,7.51788 -16.2158964,25.00663 -8.942506,37.78366 24.853109,50.92929 56.240257,99.29932 70.482402,154.72412 14.99035,53.17997 9.178815,109.23373 11.962346,163.83625 1.860714,14.67752 -2.400503,32.93738 8.296764,44.86525 22.1342,14.17536 50.1559,9.61291 74.99998,13.68289 8.70067,2.23825 22.15966,-0.47828 27.46884,8.40854 -1.89336,37.87579 -11.75851,75.24789 -17.96933,112.7139 -12.24714,67.44722 -27.5507,134.51968 -35.49876,202.63801 0.76046,23.1277 25.46831,40.5862 47.75828,35.879 21.82151,-2.2964 33.94515,-24.1732 48.45544,-37.9861 64.98633,-70.84381 123.30813,-147.81725 192.04955,-215.1393 4.40061,-4.54782 10.91236,-10.77063 16.86471,-4.93753 34.39777,23.26733 60.23191,58.13592 96.25657,79.29852 17.31588,8.55421 35.2063,-4.01962 45.91212,-17.15278 50.66208,-58.43874 108.54346,-112.74395 179.17896,-146.04737 69.61472,-36.54418 148.98551,-44.89457 226.35131,-48.22504 18.8086,-2.22987 39.0261,0.4588 56.9251,-6.34587 17.2108,-7.72262 19.8395,-32.08044 10.0836,-46.57035 -42.9064,-67.27481 -92.61047,-135.45656 -101.87267,-216.97522 -6.05645,-54.59442 -7.16932,-111.13661 6.36785,-164.60417 11.86863,-42.15738 32.80612,-81.26947 44.12052,-123.53979 2.2066,-21.28431 -21.5495,-38.643637 -41.56552,-31.84405 C 921.43992,118.48443 861.7065,144.86158 797.59333,143.9713 729.18874,146.32027 659.59091,141.2194 595.42045,115.68221 533.95637,94.957027 480.41137,57.345453 428.19214,19.78244 418.21433,13.564741 407.67234,5.4338493 395.28125,5.8833454 Z M 753.28919,298.99579 c -22.63282,6.66075 -39.76474,25.00579 -57.76094,39.42607 -39.44423,34.80125 -76.15537,76.02413 -91.92477,127.24495 17.2153,-59.71337 63.87425,-105.01333 110.03643,-143.93305 12.08867,-8.53043 24.48078,-20.76241 39.64928,-22.73797 z m 3.6806,0.63485 c 20.63247,8.96864 25.98291,34.79958 27.99207,55.06498 2.43785,54.07327 -29.91959,104.91906 -71.85404,136.85029 -14.19999,10.44764 -30.17204,19.19534 -47.44429,22.95415 63.42501,-19.63721 112.95987,-80.11151 118.866,-146.36342 1.76997,-24.85298 -5.27685,-54.94543 -27.55974,-68.506 z M 601.34447,488.87606 c 1.52618,13.51669 14.51036,24.01179 25.52667,27.30268 -13.27485,-2.66967 -25.62273,-14.48408 -25.74477,-28.63471 z"
       style="opacity:1;fill:#2a6395;fill-opacity:1;stroke-width:1.99414778" />
    <path
       inkscape:connector-curvature="0"
       id="path5427"
       d="M 395.57335,5.8521869 C 372.80728,7.8859368 363.19535,32.683608 352.96176,49.700873 308.82942,135.3037 241.38154,211.45123 153.90848,254.18717 113.2388,275.36942 68.529309,287.28533 27.614154,307.77861 c -13.012847,5.2682 -17.9341556,20.01321 -13.795451,32.82944 10.415288,29.32601 29.263765,54.97075 41.687886,83.45438 22.715917,44.8848 40.151177,93.44217 40.589527,144.26682 2.958888,44.32352 0.168391,89.08368 4.993814,133.25848 6.51354,18.2787 30.16139,17.49271 45.99782,20.05054 20.01993,3.17753 41.80647,0.83232 60.3775,8.87629 4.48215,10.42931 -1.3015,23.06477 -1.65582,34.16354 -14.90187,93.56108 -37.98512,185.88962 -49.35074,280.0394 -3.31578,24.4328 23.39008,44.6101 46.50415,39.3961 23.40594,-2.2409 36.07011,-25.5278 51.66566,-40.1009 64.02774,-70.7437 122.87472,-146.35109 190.51119,-213.6934 4.06156,-3.92247 9.86604,-9.99066 15.24737,-4.27649 35.65993,23.81972 62.00888,59.72917 99.34126,81.1174 21.07701,8.1459 37.83971,-12.74812 50.49144,-26.42044 57.44923,-64.89758 125.19318,-123.64179 207.61028,-153.85611 73.98336,-30.0162 155.13301,-29.50033 233.55306,-35.75352 14.4756,-0.0752 29.3409,-9.4028 29.811,-25.10989 4.3609,-21.52565 -14.6848,-37.2348 -23.9064,-54.42757 -40.0907,-61.2792 -79.88761,-127.14821 -84.54426,-202.08146 -5.36516,-64.05203 -4.30461,-130.98039 22.10819,-190.73828 9.87837,-29.02582 24.78367,-56.85156 30.06617,-87.20765 -1.2208,-20.23444 -25.65168,-35.29191 -44.55283,-27.5987 -49.86462,12.64251 -98.41813,32.14874 -149.79087,37.71744 -50.43433,0.5292 -101.53534,3.15444 -151.61892,-3.67374 C 597.59288,124.5765 521.92417,87.412769 455.80236,38.820684 437.06126,26.936349 419.69915,9.2509952 397.00276,5.8210283 Z M 762.57054,302.78156 c 6.16734,4.08964 10.16963,10.61879 13.48777,17.071 -3.67782,-6.56302 -9.23262,-11.86813 -14.03303,-17.44491 z m -42.19258,14.46148 c -42.73064,34.60674 -83.77297,73.86349 -107.94882,124.09284 24.46963,-50.75754 65.84438,-91.09718 109.7015,-125.43267 l -1.58428,1.21109 z m 60.0659,77.78733 c -1.42067,4.83761 0.25224,-0.93898 0,0 z m -17.53057,40.26464 c -4.54759,8.39514 -10.24282,16.42926 -16.71267,23.59092 6.58431,-8.00849 12.53379,-16.54011 17.75258,-25.49938 l -0.95414,1.75106 z m -36.74373,44.62685 c -11.62528,12.53663 -30.67408,22.96028 -43.52462,28.8684 16.10381,-7.73193 31.26598,-17.51209 44.37369,-29.69801 z m -122.27398,17.97459 c 3.07412,6.00952 10.16798,11.95242 14.25894,14.87042 -5.8603,-3.30965 -11.75682,-10.01304 -14.25894,-14.87042 z"
       style="opacity:1;fill:#2a6395;fill-opacity:1;stroke-width:1.99414778" />
    <path
       inkscape:connector-curvature="0"
       id="path5429"
       d="M 394.75934,5.7781853 C 368.88079,9.1361689 360.56589,38.330468 348.55938,57.130763 299.37848,149.72549 221.39119,229.35839 122.84661,268.10143 90.885978,282.73878 56.490072,292.0942 25.569374,308.92369 c -13.9827,7.14972 -16.5986279,25.10588 -9.86003,38.10854 31.959899,65.18299 73.354274,129.43016 79.059293,203.62735 3.651145,50.03646 1.232948,100.46351 6.255083,150.37898 6.82762,19.30884 31.45861,18.53609 48.22176,21.25405 18.67772,3.16846 39.58278,-0.008 56.79426,8.87629 5.58519,9.24351 -0.64838,21.44082 -0.54917,31.62983 -14.7917,95.08272 -37.91719,188.9272 -49.46031,284.53607 -1.0899,30.8905 39.63735,48.4043 63.51672,31.1313 33.25487,-28.0429 59.67256,-63.2427 88.8061,-95.36842 45.84539,-52.1227 89.44528,-106.54502 139.55496,-154.69462 8.80803,-10.03138 18.42357,2.5758 25.7214,7.61049 28.58706,22.24799 52.05864,51.26804 83.52442,69.63159 17.33668,9.98372 35.06244,-4.63167 46.02447,-17.20768 59.36019,-66.67714 128.07424,-128.77428 212.86781,-160.53336 73.25033,-29.41468 153.23725,-29.9789 230.86186,-36.20142 11.9891,-0.67308 26.9127,-2.52587 31.3221,-15.85969 7.3608,-14.58791 2.7007,-31.48666 -7.33,-43.54409 -40.2245,-63.99845 -86.66501,-129.17268 -95.93096,-206.15149 -7.81654,-67.80489 -8.00411,-138.84638 18.51794,-202.89328 10.36722,-30.40088 25.84402,-59.55489 31.18152,-91.41621 0.1,-21.48697 -26.80839,-36.13509 -45.80704,-27.54416 -59.4815,15.18079 -118.00245,39.64753 -180.38857,37.27732 -58.18925,0.51751 -117.58825,2.06603 -173.38115,-16.60746 C 551.59557,104.49162 487.61166,61.562473 425.94907,18.027393 416.43168,12.352059 406.29295,5.5591208 394.75934,5.7781853 Z M 765.77597,305.63646 c 3.02241,1.69098 9.69208,11.68403 3.51795,4.41151 -0.0425,-0.19301 -6.18594,-6.62559 -3.51795,-4.41151 z"
       style="opacity:1;fill:#2a6395;fill-opacity:1;stroke-width:1.99414778" />
    <path
       inkscape:connector-curvature="0"
       id="path5431"
       d="M 394.46724,5.6574459 C 371.26631,8.0526777 362.24951,33.838367 351.72645,50.983595 303.78796,141.17982 230.75758,221.36162 135.77301,262.13415 c -36.916204,17.39616 -77.049993,27.95597 -112.532739,48.2501 -11.877123,7.69778 -14.3115259,23.53894 -7.735111,35.59087 29.843463,65.34784 72.643621,127.9959 78.292268,201.54508 4.716249,50.85756 1.685397,102.25949 6.957552,153.03151 6.46271,19.93673 31.57071,19.52129 48.70411,21.6441 18.45433,2.93429 38.84468,0.85097 55.73548,9.74815 6.62421,10.39773 -0.62386,23.93018 -0.60862,35.33435 -14.40537,93.11713 -38.02937,184.88898 -48.28305,278.67379 -3.3119,31.694 40.46005,50.8551 64.14378,32.07 27.2736,-21.0907 47.37692,-49.9015 70.83416,-74.9059 51.41748,-57.98857 99.51136,-119.39821 156.06344,-172.53303 4.72431,-6.65737 12.94766,-5.87454 18.22288,-0.35343 32.01797,24.02264 58.0953,55.88326 92.69672,76.39299 18.65286,9.42923 35.51918,-8.74509 47.4735,-20.70946 53.70967,-58.12486 112.38438,-114.63524 185.78371,-147.04917 80.02784,-39.75904 171.21476,-39.80273 258.27581,-47.42285 14.8392,1.15024 29.6101,-8.41062 31.8568,-23.64497 4.3024,-20.62916 -13.1765,-36.98139 -21.9123,-53.80693 -41.1617,-62.30802 -81.5466,-129.93905 -86.52342,-206.25017 -3.44042,-57.93739 -4.8246,-117.82135 16.4673,-172.81705 10.93962,-34.28075 28.62342,-66.72734 35.13132,-102.32472 1.2877,-21.39531 -25.3996,-36.4535 -44.29974,-28.8259 -60.46152,15.32118 -120.17892,39.37628 -183.53948,37.4724 -61.18462,0.55472 -123.95096,1.34184 -182.21136,-20.07779 C 545.15776,99.837506 484.17854,59.042859 425.39944,17.256024 416.04308,11.594005 405.79232,5.4078923 394.46724,5.6574459 Z"
       style="opacity:1;fill:#2a6395;fill-opacity:1;stroke-width:1.99414778" />
    <path
       inkscape:connector-curvature="0"
       id="path5433"
       d="M 394.58796,5.8405024 C 373.35902,6.4342123 364.95925,30.148075 354.74549,44.994565 313.70866,122.0797 256.77969,193.00928 181.07745,238.17809 132.76826,268.63176 76.360337,282.23956 25.87317,308.25378 c -13.230243,7.43396 -19.3091481,26.05039 -9.932906,38.8772 29.463631,65.00737 71.949413,127.21153 77.124641,200.31731 5.494896,50.95496 2.254566,102.55024 7.717335,153.43449 6.79438,20.30766 32.59659,19.18556 49.89381,21.74323 17.9035,3.16194 37.52553,1.50658 54.18356,9.32575 6.52662,10.05858 -0.78181,23.36615 -0.57696,34.40685 -14.52504,92.50915 -37.00766,183.83232 -48.12386,276.90609 -4.08072,26.3939 24.1856,47.8339 48.8644,41.4915 24.71717,-6.0756 38.59351,-30.3259 55.93741,-46.8352 61.64363,-67.59927 117.57397,-140.60073 183.23879,-204.36217 4.59056,-3.45127 10.57694,-11.79468 16.62389,-5.75166 35.0084,23.46189 61.30578,58.47015 98.15724,79.26347 20.21671,8.33575 37.8076,-10.79939 49.95451,-24.26926 57.53974,-61.53892 121.46266,-120.72854 201.14145,-151.80573 76.23974,-32.08361 160.1715,-31.83729 241.21312,-39.39034 13.1987,-0.5038 27.294,-7.20741 29.8071,-21.39812 6.5652,-25.16354 -16.0058,-44.55539 -26.5066,-64.78342 -36.9069,-58.99302 -74.94679,-121.38701 -80.4919,-192.45386 -3.36504,-47.07641 -3.86597,-95.10897 5.00485,-141.56501 10.38261,-48.33443 36.68275,-91.76238 46.38345,-140.18236 -1.5104,-21.09765 -26.43956,-34.87281 -45.74101,-27.22109 -49.14053,11.35301 -96.81861,30.35902 -147.20061,35.66116 -52.32175,0.57659 -105.28639,2.89626 -157.27704,-3.64415 C 586.14161,121.65142 506.98202,74.581821 434.40982,23.13945 422.20033,15.793992 409.66685,5.308956 394.58796,5.8405024 Z"
       style="opacity:1;fill:#2a6395;fill-opacity:1;stroke-width:1.99414778" />
    <path
       inkscape:connector-curvature="0"
       id="path5435"
       d="M 393.54026,5.5873391 C 371.10059,7.2496119 363.6642,32.32783 352.80684,48.054288 320.26526,107.64486 279.0699,163.16986 226.1787,206.17118 170.76233,252.951 100.31125,274.47583 35.014312,303.31904 c -13.00139,5.01337 -25.7128298,17.60715 -23.925878,32.40101 28.04262,68.63881 74.498379,132.14569 81.204403,207.74493 6.052496,52.21285 2.46377,105.22322 8.516663,157.40612 5.75868,19.42971 30.23705,18.70119 46.44962,21.77982 18.91307,3.47837 39.62056,1.51774 57.27722,9.77601 6.28391,8.98387 -0.57261,21.37766 -0.31224,31.45455 -14.46325,94.49231 -37.61707,187.61514 -48.46648,282.65102 -2.18194,27.5542 31.05983,46.5931 55.24803,36.7047 20.78135,-8.8544 33.60621,-29.3714 49.42575,-44.5957 64.19203,-69.93429 121.71799,-146.16703 191.46105,-210.81486 6.68961,-6.49674 13.96374,5.9973 19.88696,8.48681 30.1634,22.63084 54.65055,53.33454 88.35787,71.0454 20.12901,7.92321 36.58826,-11.00662 49.0411,-23.98629 67.06059,-74.95305 149.05411,-142.42167 248.25909,-167.79488 64.80394,-17.28506 132.38538,-17.03972 198.65453,-24.81753 12.8061,-0.79188 24.4553,-9.54256 25.6395,-22.90933 4.6344,-22.13484 -14.414,-39.98888 -23.9663,-57.94243 -41.406,-65.3486 -83.91224,-136.17539 -84.45375,-215.89067 -1.1597,-55.22893 -2.66957,-112.25619 18.75055,-164.31886 11.5593,-32.82343 26.9961,-64.84968 33.3504,-99.18518 -2.4452,-18.60393 -21.9586,-33.349066 -40.60343,-27.59869 -47.4739,9.2404 -92.91841,29.08613 -140.94575,34.52368 -58.33488,3.33439 -117.36458,4.16916 -175.38762,-2.90553 C 580.21157,118.98774 502.62207,70.888811 430.45195,20.134492 419.20851,13.387134 407.1965,5.2915301 393.54026,5.5873391 Z"
       style="opacity:1;fill:#2a6395;fill-opacity:1;stroke-width:1.99414778" />
    <path
       inkscape:connector-curvature="0"
       id="path5437"
       d="M 394.68145,5.1822779 C 372.29377,7.2697914 363.14201,31.869083 352.52002,48.204457 304.95814,134.15526 237.88438,214.04011 146.77804,255.28566 107.17061,275.34452 63.806052,287.2572 25.043573,308.93927 c -13.80117,6.86892 -17.866824,24.81691 -9.491676,37.44481 28.595737,65.43999 71.097883,127.73649 76.626685,200.70783 5.81134,51.02071 2.387833,102.83473 8.591968,153.78698 5.62592,19.18524 29.74409,18.61932 45.73122,21.74947 18.9806,3.88105 40.30831,1.38494 57.61783,10.79953 5.82448,9.28842 -0.85334,21.55805 -0.73612,31.77393 -13.75112,92.04944 -35.78954,182.81435 -47.19354,275.24298 -5.187,21.4264 13.00795,41.8596 33.4643,45.2228 26.54221,5.3808 44.82597,-19.8397 61.17793,-36.2572 68.26835,-72.78543 127.93337,-153.83369 201.71851,-221.26438 6.69441,-4.21593 13.50736,5.82413 19.09669,8.46111 30.01316,22.326 54.20184,52.66352 87.41495,70.48688 20.10914,8.38736 37.42347,-10.39912 49.85213,-23.53751 61.8324,-66.1999 131.985,-129.20218 219.25294,-158.79643 75.91315,-27.74935 158.14098,-23.40123 236.96051,-35.64745 19.7098,-7.99412 22.8447,-35.45024 10.0331,-50.89749 -40.2911,-68.47147 -90.6296,-136.11869 -99.29844,-217.41664 -2.98227,-46.17621 -4.2367,-93.24439 2.15773,-139.18916 9.18403,-52.04011 36.91211,-98.67732 47.46621,-150.28942 -1.8871,-18.80559 -21.9369,-34.338582 -40.7576,-28.35247 -57.68469,11.04242 -112.73992,37.07315 -172.38645,35.35146 -70.73808,1.48732 -143.95796,4.59947 -210.74365,-22.591 C 535.17356,92.413181 477.87456,50.766366 418.97733,13.388663 411.50107,9.3003924 403.48232,4.7978072 394.68145,5.1822779 Z"
       style="opacity:1;fill:#2a6395;fill-opacity:1;stroke-width:1.99414778" />
    <path
       inkscape:connector-curvature="0"
       id="path5439"
       d="M 395.3124,4.9719575 C 370.26678,7.3895691 361.14258,34.920715 349.43326,53.077773 303.26036,135.27206 238.76145,211.02887 152.31617,252.06532 c -42.84933,22.38123 -90.438014,34.8505 -131.919117,59.83402 -14.2629022,9.46036 -8.510452,28.27097 -2.240681,40.8139 27.849257,63.56691 68.577631,124.22723 73.723024,195.2571 5.032474,50.51218 3.158431,101.51721 8.182304,151.98157 5.96658,20.00073 31.01067,20.43571 48.04051,23.24064 18.57255,3.1545 39.27962,1.73548 55.95896,11.11167 4.41031,11.79024 -1.35066,25.58908 -1.99363,38.04547 -13.74239,90.53927 -36.17789,179.79726 -46.22165,270.91861 -4.28821,27.0621 27.02376,49.7373 52.11011,41.6904 21.21845,-7.9194 34.61886,-28.3107 50.46517,-43.5012 63.45175,-68.45408 119.94247,-143.4934 188.18601,-207.41473 4.57936,-4.39911 11.3133,-9.81196 16.66593,-3.18986 33.89772,22.86624 59.46557,57.75954 96.45912,76.37353 16.08829,7.29559 31.27358,-5.51202 41.61224,-16.62699 48.50174,-46.11183 93.95152,-96.90231 152.68964,-130.40711 60.61138,-37.51769 131.32176,-54.80655 201.83415,-59.62336 36.3772,-4.48721 73.58104,-3.9168 109.41934,-11.92761 20.3824,-6.85225 21.1113,-34.48662 10.5355,-49.93939 -40.7186,-68.94702 -90.86653,-137.30373 -99.42024,-219.36059 -3.46117,-52.82713 -6.06245,-107.14757 6.8209,-158.85758 11.19349,-43.47083 33.42324,-83.62127 42.18864,-127.75397 -0.4709,-18.54318 -20.5046,-35.570378 -39.13119,-30.34844 -58.24118,11.24512 -114.04236,37.16763 -174.27717,35.4734 C 749.39365,137.64062 685.08547,143.1019 624.7017,123.10963 548.87007,101.01543 484.03664,54.412572 418.05814,12.687595 411.03129,8.8967173 403.53319,4.7930532 395.3124,4.9719575 Z"
       style="opacity:1;fill:#2a6395;fill-opacity:1;stroke-width:1.99414778" />
  </g>
  <g
     style="display:inline;opacity:0.81"
     inkscape:label="interieur"
     id="layer1"
     inkscape:groupmode="layer">
    <path
       sodipodi:insensitive="true"
       inkscape:connector-curvature="0"
       id="path5362"
       d="m 414.79876,103.50697 c -12.90282,9.99748 -18.30521,27.3346 -28.22394,40.15818 -29.73413,47.09251 -69.33835,87.08683 -112.07372,122.47073 -47.71697,36.36914 -101.87632,63.25493 -157.49555,85.04121 -11.69873,5.88082 -1.06106,19.60699 2.43338,27.31346 34.20555,65.51821 57.37645,138.08817 56.371,212.36632 1.32414,19.70072 -0.78053,40.75718 2.67553,59.58618 32.39358,5.04465 66.39006,5.29735 98.14917,14.97262 14.37108,5.93766 22.3388,21.90895 18.27208,36.95471 -10.90432,74.67449 -28.8779,148.37278 -40.57363,222.95872 4.23051,6.01971 9.18821,-5.53803 12.61004,-7.84258 49.47571,-57.06245 96.76635,-116.08571 147.82507,-171.73868 8.45071,-10.30644 21.60077,-16.61444 35.12168,-12.79722 30.84428,9.31404 54.56903,32.78343 79.50294,52.0817 12.21349,9.60848 23.29906,21.14041 36.69199,29.04504 13.2759,-7.89663 21.62625,-22.95764 33.42177,-33.09325 84.64629,-83.53526 197.26858,-137.99071 315.2509,-152.74531 17.21147,-2.58318 34.72241,-3.84687 51.92997,-6.77679 3.53029,-5.9819 -5.6603,-12.91782 -7.2233,-18.95257 -38.16795,-65.12898 -63.43721,-139.43125 -67.01585,-215.04556 -0.17519,-45.35322 -0.80924,-91.10206 10.17283,-135.42513 1.83345,-4.61841 1.57039,-13.21382 -5.70718,-10.82606 -41.00796,8.58749 -81.39835,21.39965 -119.77631,38.27224 -10.50495,4.54945 5.98519,12.705 8.90654,18.58943 23.39301,24.92888 19.87312,62.20617 11.04382,92.49142 -20.78436,62.7171 -69.85682,114.79284 -129.01125,143.50076 -29.01993,14.43761 -63.60534,15.9797 -93.93924,5.15709 -21.8263,-8.48735 -27.576,-34.61718 -23.11903,-55.15027 9.05393,-51.6795 46.85668,-92.97996 82.67385,-129.08384 27.02266,-27.11711 58.61497,-48.86701 90.32545,-69.97596 5.9465,-6.19183 -6.5244,-8.67485 -10.77258,-9.17198 -67.79918,-10.16964 -140.87936,2.64489 -196.39339,44.41591 -57.40152,44.07203 -94.67912,111.94342 -106.77082,182.78248 -2.2758,28.0884 -5.69351,57.042 0.16425,84.87805 15.527,45.21363 62.03372,73.11077 107.97416,77.82999 26.95037,1.54753 54.63345,1.63476 79.93487,-9.17197 57.34551,-18.56302 109.54771,-49.58558 165.17581,-72.13429 8.09471,-2.05842 2.88201,9.91256 -2.0552,10.29125 -61.69034,32.38651 -123.52475,67.62838 -192.16457,82.56689 -54.37802,9.04801 -112.73203,7.06321 -163.37596,-16.69803 -38.60186,-17.2157 -66.51429,-57.2767 -65.07748,-100.11906 -2.96931,-61.54077 24.26445,-121.02808 61.62736,-168.6564 41.65616,-51.3167 97.5455,-92.16803 161.28509,-110.90992 29.63377,-9.94343 60.41108,-16.91657 91.85422,-15.60424 31.19487,-0.74623 62.81898,-2.68851 92.96834,7.27181 20.56106,-5.81037 40.73538,-16.12489 61.83331,-21.86322 30.93422,-10.43684 63.08667,-16.30316 94.50461,-24.71964 9.06414,-4.27364 10.30569,-16.28804 10.74584,-24.83807 -29.7167,3.6628 -59.52404,12.41432 -90.01806,13.73322 -47.45716,1.73456 -95.29601,3.97816 -142.48776,-2.00113 -92.17971,-13.86667 -181.22146,-49.39705 -257.57178,-103.25554 -3.5468,-1.73396 -6.66233,-5.52132 -10.59927,-6.1327 z m -11.42582,84.88567 c 15.85093,-1.0407 29.17221,17.66106 20.22725,31.70654 -32.27097,63.09706 -85.32291,118.02085 -151.92401,144.37556 -13.39871,4.93669 -32.03509,13.38123 -43.3692,-0.14135 -9.21072,-10.92482 -4.91158,-30.0075 9.27894,-34.43024 53.62667,-19.69167 98.8316,-58.6674 129.28248,-106.69443 9.76435,-11.47948 14.85644,-30.92176 31.24813,-34.54103 1.74247,-0.22906 3.50154,-0.25902 5.25641,-0.27505 z m -171.265,224.92545 c 12.53361,-1.1252 23.23716,8.33736 25.02907,20.54813 12.90393,43.97306 22.18112,90.70956 14.11896,136.4986 -1.83205,15.58889 -17.02313,29.34843 -32.96716,23.65765 -13.43498,-3.08388 -14.63873,-18.2535 -13.95255,-29.63191 -0.66293,-33.85613 2.61981,-68.74985 -8.51816,-101.4467 -2.44489,-14.42846 -12.57311,-33.96783 2.35806,-45.25561 3.80737,-3.37374 8.98009,-4.41532 13.93178,-4.37016 z"
       style="opacity:1;fill:#2a6395;fill-opacity:1;stroke-width:1.95587349" />
    <path
       inkscape:connector-curvature="0"
       id="path5360"
       d="m 753.6844,293.3413 c -17.72486,5.28288 -31.94515,18.99526 -46.85944,29.51392 -43.88635,36.46608 -86.16806,79.68462 -105.64139,134.47003 -6.12772,19.00006 -9.08681,46.47339 11.54042,57.74794 29.21857,15.54673 64.17511,3.71061 90.74565,-11.91479 44.6685,-28.2926 77.141,-76.34435 85.77193,-128.59105 4.9583,-29.9873 -5.27993,-65.36328 -32.90986,-80.93191 -0.86252,-0.22614 -1.75643,-0.3222 -2.64731,-0.29414 z"
       style="opacity:1;fill:#2a6395;fill-opacity:1;stroke-width:1.95587349" />
  </g>
  <g
     style="display:none;opacity:1"
     inkscape:label="exterieur"
     id="layer3"
     inkscape:groupmode="layer">
    <path
       inkscape:connector-curvature="0"
       id="path5364"
       d="M -1.4050201,-0.6127385 C -2.3405436,226.86388 -1.5393654,454.6232 -1.806127,682.20869 c 0,137.23713 0,274.47424 0,411.71141 9.6147168,4.6751 23.872404,0.6654 35.251564,2.0017 353.361153,0 706.722293,0 1060.083463,0 4.6751,-9.6147 0.6655,-23.8724 2.0017,-35.2516 0,-353.36114 0,-706.72228 0,-1060.08343794 -9.6147,-4.67509726 -23.8724,-0.66549119 -35.2516,-2.00171436 -353.36112,0 -706.72226,0 -1060.08341265,0 z M 400.19846,6.5804447 c 19.21292,0.6578133 31.6344,18.4318953 46.55842,28.2422153 53.81525,44.498115 116.66793,77.76793 184.10095,96.1162 67.71019,19.32383 139.66117,21.99297 209.27334,13.17248 47.71111,-6.15383 93.14363,-22.80779 137.67265,-40.06192 20.42881,-6.372891 48.28198,6.31496 47.21988,30.2893 -3.0758,23.33739 -18.0396,43.1499 -26.23625,64.87617 -51.55196,111.73327 -43.63392,247.34231 17.12935,353.90589 16.9327,32.73154 41.3162,60.55085 62.1752,90.62366 9.659,15.39212 2.1471,36.24552 -13.0316,45.05288 -10.3081,6.92182 -25.0221,1.48277 -37.1445,3.31456 -56.5694,-0.55205 -113.9266,1.01954 -168.46535,17.71206 -98.87396,27.32111 -188.72222,87.30342 -249.50374,170.24122 -10.31786,12.55624 -21.18053,29.86181 -39.86622,27.95141 -11.09399,1.36808 -21.22925,-3.5537 -27.9589,-12.36292 -29.01849,-26.39924 -55.02109,-56.7066 -87.35741,-79.13145 -9.44051,0.0646 -14.52696,11.93364 -21.37326,17.2705 -68.56868,78.48515 -134.22902,159.52165 -203.90365,237.0313 -8.59956,10.4046 -21.79424,14.3654 -34.9192,13.0034 -23.79228,1.605 -42.92672,-23.6754 -37.55508,-46.0585 17.29094,-101.86896 39.80593,-202.8257 58.09938,-304.52795 2.39903,-8.55752 -7.38354,-12.16564 -14.2674,-10.81909 -27.94728,-2.6908 -56.61883,0.38127 -84.14131,-5.57665 C 103.1322,710.91375 95.322716,695.57532 98.677625,681.01026 103.58598,623.97883 107.94543,565.42641 92.040122,509.59262 78.423106,452.82734 50.150541,401.06591 18.3982,352.58669 7.8101179,338.36741 10.455398,315.56789 27.272211,307.35711 55.154636,292.98162 87.07725,288.76282 115.7653,276.13439 173.6782,251.88473 228.32934,218.24773 271.40004,172.09084 310.87996,133.33995 339.56444,85.257873 361.50178,34.844026 367.0165,21.737422 376.42376,8.7626625 391.76376,7.2756968 c 2.78066,-0.4991079 5.60887,-0.750696 8.4347,-0.6952521 z"
       style="display:inline;opacity:1;fill:#2a6395;fill-opacity:1;stroke-width:1.95587349" />
  </g>
</svg>
